<svg xmlns="http://www.w3.org/2000/svg" viewBox="0 0 64 64" width="64" height="64">
  <circle cx="32" cy="32" r="31" fill="#171717" stroke="#C69A45" stroke-width="2"/>
  <path d="M32 18 Q36 28 34 34 Q38 30 36 38 Q32 30 32 42 Q32 30 28 38 Q26 30 30 34 Q28 28 32 18Z" fill="#8F241C"/>
  <path d="M32 22 Q34 28 33 32 Q36 30 35 36 Q32 30 32 38 Q32 30 29 36 Q28 30 31 32 Q30 28 32 22Z" fill="#C69A45" opacity="0.7"/>
  <line x1="18" y1="46" x2="46" y2="46" stroke="#C69A45" stroke-width="2" opacity="0.6"/>
  <line x1="20" y1="49" x2="44" y2="49" stroke="#C69A45" stroke-width="1.5" opacity="0.4"/>
</svg>